<?xml version="1.0" encoding="utf-8"?>
<!-- Generator: Adobe Illustrator 15.0.0, SVG Export Plug-In . SVG Version: 6.00 Build 0)  -->
<!DOCTYPE svg PUBLIC "-//W3C//DTD SVG 1.1//EN" "http://www.w3.org/Graphics/SVG/1.1/DTD/svg11.dtd">
<svg width="110" height="17" xmlns="http://www.w3.org/2000/svg" xmlns:svg="http://www.w3.org/2000/svg">
 <g>
  <title>Layer 1</title>
  <polygon id="svg_1" points="9.002,0 11.128,6.494 18.005,6.494 12.441,10.506 14.566,17 9.002,12.987 3.438,17 5.564,10.506  0,6.494 6.878,6.494 " fill="#81B3D2"/>
  <polygon id="svg_2" points="32.09767532348633,0.04547881707549095 34.22367477416992,6.539478302001953 41.10067367553711,6.539478302001953 35.53667068481445,10.55147933959961 37.66167068481445,17.04547882080078 32.09767532348633,13.032478332519531 26.533672332763672,17.04547882080078 28.659671783447266,10.55147933959961 23.095672607421875,6.539478302001953 29.973674774169922,6.539478302001953 " fill="#81B3D2"/>
  <rect id="svg_3" height="0.075085" width="0.075085" y="7.327439" x="7.360756" stroke-linecap="null" stroke-linejoin="null" stroke-dasharray="null" stroke-width="null" fill="#81B3D2"/>
  <polygon id="svg_4" points="100.91577529907227,-0.008749008178710938 103.04177474975586,6.485251426696777 109.91876602172852,6.485251426696777 104.35477828979492,10.4972505569458 106.47977828979492,16.99125099182129 100.91577529907227,12.978250503540039 95.35177230834961,16.99125099182129 97.47777938842773,10.4972505569458 91.91376876831055,6.485251426696777 98.79178237915039,6.485251426696777 " fill="#81B3D2"/>
  <polygon id="svg_5" points="78.16511535644531,-0.008749009110033512 80.2911148071289,6.485251426696777 87.1681137084961,6.485251426696777 81.60411071777344,10.4972505569458 83.72911071777344,16.99125099182129 78.16511535644531,12.978250503540039 72.60111236572266,16.99125099182129 74.72711181640625,10.4972505569458 69.1631088256836,6.485251426696777 76.0411148071289,6.485251426696777 " fill="#81B3D2"/>
  <polygon id="svg_6" points="55.11411666870117,-0.008749009110033512 57.240116119384766,6.485251426696777 64.11711502075195,6.485251426696777 58.5531120300293,10.4972505569458 60.6781120300293,16.99125099182129 55.11411666870117,12.978250503540039 49.550113677978516,16.99125099182129 51.67611312866211,10.4972505569458 46.11211395263672,6.485251426696777 52.990116119384766,6.485251426696777 " fill="#81B3D2"/>
 </g>
</svg>